<?xml version="1.0" encoding="us-ascii" standalone="no"?><svg xmlns="http://www.w3.org/2000/svg" xmlns:xlink="http://www.w3.org/1999/xlink" contentStyleType="text/css" height="563px" preserveAspectRatio="none" style="width:1184px;height:563px;background:#FFFFFF;" version="1.1" viewBox="0 0 1184 563" width="1184px" zoomAndPan="magnify"><defs/><g><!--class User--><g id="elem_User"><rect codeLine="2" fill="#F1F1F1" height="118.4375" id="User" rx="2.5" ry="2.5" style="stroke:#181818;stroke-width:0.5;" width="167" x="777" y="240"/><ellipse cx="841.75" cy="256" fill="#ADD1B2" rx="11" ry="11" style="stroke:#181818;stroke-width:1.0;"/><path d="M840.6094,256.7969 L840.6094,259.2969 L844.9375,259.2969 L844.9375,258.375 Q844.9375,257.7656 845.1719,257.5 Q845.4219,257.2344 845.7969,257.2344 Q846.1719,257.2344 846.4063,257.5 Q846.6406,257.7656 846.6406,258.375 L846.6406,261 L838.6406,261 Q838.0156,261 837.75,260.7656 Q837.5,260.5313 837.5,260.1406 Q837.5,259.7656 837.7656,259.5313 Q838.0313,259.2969 838.6406,259.2969 L838.9063,259.2969 L838.9063,252.6406 L838.6406,252.6406 Q838.0156,252.6406 837.75,252.4063 Q837.5,252.1719 837.5,251.7813 Q837.5,251.4063 837.75,251.1719 Q838.0156,250.9375 838.6406,250.9375 L846.2656,250.9375 L846.2656,253.5313 Q846.2656,254.1406 846.0313,254.4063 Q845.8125,254.6563 845.4219,254.6563 Q845.0469,254.6563 844.8125,254.4063 Q844.5781,254.1406 844.5781,253.5313 L844.5781,252.6406 L840.6094,252.6406 L840.6094,255.0938 L842.0938,255.0938 Q842.0938,254.4375 842.2188,254.25 Q842.4844,253.8438 842.9531,253.8438 Q843.3281,253.8438 843.5625,254.1094 Q843.7969,254.3594 843.7969,254.9688 L843.7969,256.9375 Q843.7969,257.4844 843.6719,257.6719 Q843.4063,258.0625 842.9531,258.0625 Q842.4844,258.0625 842.2188,257.6563 Q842.0938,257.4688 842.0938,256.7969 L840.6094,256.7969 Z " fill="#000000"/><text fill="#000000" font-family="sans-serif" font-size="14" lengthAdjust="spacing" textLength="29" x="862.25" y="261.7285">User</text><line style="stroke:#181818;stroke-width:0.5;" x1="778" x2="943" y1="272" y2="272"/><ellipse cx="788" cy="286.3047" fill="#000000" rx="3" ry="3" style="stroke:#000000;stroke-width:1.0;"/><text fill="#000000" font-family="sans-serif" font-size="14" lengthAdjust="spacing" textLength="83" x="797" y="290.5332">id : INTEGER</text><line style="stroke:#181818;stroke-width:0.5;" x1="778" x2="943" y1="297.6094" y2="297.6094"/><ellipse cx="788" cy="311.9141" fill="#000000" rx="3" ry="3" style="stroke:#000000;stroke-width:1.0;"/><text fill="#000000" font-family="sans-serif" font-size="14" lengthAdjust="spacing" textLength="141" x="797" y="316.1426">username : VARCHAR</text><ellipse cx="788" cy="329.5234" fill="#000000" rx="3" ry="3" style="stroke:#000000;stroke-width:1.0;"/><text fill="#000000" font-family="sans-serif" font-size="14" lengthAdjust="spacing" textLength="111" x="797" y="333.752">email : VARCHAR</text><ellipse cx="788" cy="347.1328" fill="#000000" rx="3" ry="3" style="stroke:#000000;stroke-width:1.0;"/><text fill="#000000" font-family="sans-serif" font-size="14" lengthAdjust="spacing" textLength="138" x="797" y="351.3613">password : VARCHAR</text></g><!--class Notepad--><g id="elem_Notepad"><rect codeLine="10" fill="#F1F1F1" height="144.0469" id="Notepad" rx="2.5" ry="2.5" style="stroke:#181818;stroke-width:0.5;" width="189" x="874" y="15.5"/><ellipse cx="937.75" cy="31.5" fill="#ADD1B2" rx="11" ry="11" style="stroke:#181818;stroke-width:1.0;"/><path d="M936.6094,32.2969 L936.6094,34.7969 L940.9375,34.7969 L940.9375,33.875 Q940.9375,33.2656 941.1719,33 Q941.4219,32.7344 941.7969,32.7344 Q942.1719,32.7344 942.4063,33 Q942.6406,33.2656 942.6406,33.875 L942.6406,36.5 L934.6406,36.5 Q934.0156,36.5 933.75,36.2656 Q933.5,36.0313 933.5,35.6406 Q933.5,35.2656 933.7656,35.0313 Q934.0313,34.7969 934.6406,34.7969 L934.9063,34.7969 L934.9063,28.1406 L934.6406,28.1406 Q934.0156,28.1406 933.75,27.9063 Q933.5,27.6719 933.5,27.2813 Q933.5,26.9063 933.75,26.6719 Q934.0156,26.4375 934.6406,26.4375 L942.2656,26.4375 L942.2656,29.0313 Q942.2656,29.6406 942.0313,29.9063 Q941.8125,30.1563 941.4219,30.1563 Q941.0469,30.1563 940.8125,29.9063 Q940.5781,29.6406 940.5781,29.0313 L940.5781,28.1406 L936.6094,28.1406 L936.6094,30.5938 L938.0938,30.5938 Q938.0938,29.9375 938.2188,29.75 Q938.4844,29.3438 938.9531,29.3438 Q939.3281,29.3438 939.5625,29.6094 Q939.7969,29.8594 939.7969,30.4688 L939.7969,32.4375 Q939.7969,32.9844 939.6719,33.1719 Q939.4063,33.5625 938.9531,33.5625 Q938.4844,33.5625 938.2188,33.1563 Q938.0938,32.9688 938.0938,32.2969 L936.6094,32.2969 Z " fill="#000000"/><text fill="#000000" font-family="sans-serif" font-size="14" lengthAdjust="spacing" textLength="53" x="958.25" y="37.2285">Notepad</text><line style="stroke:#181818;stroke-width:0.5;" x1="875" x2="1062" y1="47.5" y2="47.5"/><ellipse cx="885" cy="61.8047" fill="#000000" rx="3" ry="3" style="stroke:#000000;stroke-width:1.0;"/><text fill="#000000" font-family="sans-serif" font-size="14" lengthAdjust="spacing" textLength="83" x="894" y="66.0332">id : INTEGER</text><line style="stroke:#181818;stroke-width:0.5;" x1="875" x2="1062" y1="73.1094" y2="73.1094"/><ellipse cx="885" cy="87.4141" fill="#000000" rx="3" ry="3" style="stroke:#000000;stroke-width:1.0;"/><text fill="#000000" font-family="sans-serif" font-size="14" lengthAdjust="spacing" textLength="113" x="894" y="91.6426">name : VARCHAR</text><ellipse cx="885" cy="105.0234" fill="#000000" rx="3" ry="3" style="stroke:#000000;stroke-width:1.0;"/><text fill="#000000" font-family="sans-serif" font-size="14" lengthAdjust="spacing" textLength="159" x="894" y="109.252">created_at : TIMESTAMP</text><ellipse cx="885" cy="122.6328" fill="#000000" rx="3" ry="3" style="stroke:#000000;stroke-width:1.0;"/><text fill="#000000" font-family="sans-serif" font-size="14" lengthAdjust="spacing" textLength="163" x="894" y="126.8613">updated_at : TIMESTAMP</text><line style="stroke:#181818;stroke-width:1.0;stroke-dasharray:1.0,2.0;" x1="875" x2="1062" y1="133.9375" y2="133.9375"/><ellipse cx="885" cy="148.2422" fill="#000000" rx="3" ry="3" style="stroke:#000000;stroke-width:1.0;"/><text fill="#000000" font-family="sans-serif" font-size="14" lengthAdjust="spacing" textLength="129" x="894" y="152.4707">owner_id : INTEGER</text></g><!--class Note--><g id="elem_Note"><rect codeLine="20" fill="#F1F1F1" height="161.6563" id="Note" rx="2.5" ry="2.5" style="stroke:#181818;stroke-width:0.5;" width="189" x="430" y="7"/><ellipse cx="505.75" cy="23" fill="#ADD1B2" rx="11" ry="11" style="stroke:#181818;stroke-width:1.0;"/><path d="M504.6094,23.7969 L504.6094,26.2969 L508.9375,26.2969 L508.9375,25.375 Q508.9375,24.7656 509.1719,24.5 Q509.4219,24.2344 509.7969,24.2344 Q510.1719,24.2344 510.4063,24.5 Q510.6406,24.7656 510.6406,25.375 L510.6406,28 L502.6406,28 Q502.0156,28 501.75,27.7656 Q501.5,27.5313 501.5,27.1406 Q501.5,26.7656 501.7656,26.5313 Q502.0313,26.2969 502.6406,26.2969 L502.9063,26.2969 L502.9063,19.6406 L502.6406,19.6406 Q502.0156,19.6406 501.75,19.4063 Q501.5,19.1719 501.5,18.7813 Q501.5,18.4063 501.75,18.1719 Q502.0156,17.9375 502.6406,17.9375 L510.2656,17.9375 L510.2656,20.5313 Q510.2656,21.1406 510.0313,21.4063 Q509.8125,21.6563 509.4219,21.6563 Q509.0469,21.6563 508.8125,21.4063 Q508.5781,21.1406 508.5781,20.5313 L508.5781,19.6406 L504.6094,19.6406 L504.6094,22.0938 L506.0938,22.0938 Q506.0938,21.4375 506.2188,21.25 Q506.4844,20.8438 506.9531,20.8438 Q507.3281,20.8438 507.5625,21.1094 Q507.7969,21.3594 507.7969,21.9688 L507.7969,23.9375 Q507.7969,24.4844 507.6719,24.6719 Q507.4063,25.0625 506.9531,25.0625 Q506.4844,25.0625 506.2188,24.6563 Q506.0938,24.4688 506.0938,23.7969 L504.6094,23.7969 Z " fill="#000000"/><text fill="#000000" font-family="sans-serif" font-size="14" lengthAdjust="spacing" textLength="29" x="526.25" y="28.7285">Note</text><line style="stroke:#181818;stroke-width:0.5;" x1="431" x2="618" y1="39" y2="39"/><ellipse cx="441" cy="53.3047" fill="#000000" rx="3" ry="3" style="stroke:#000000;stroke-width:1.0;"/><text fill="#000000" font-family="sans-serif" font-size="14" lengthAdjust="spacing" textLength="83" x="450" y="57.5332">id : INTEGER</text><line style="stroke:#181818;stroke-width:0.5;" x1="431" x2="618" y1="64.6094" y2="64.6094"/><ellipse cx="441" cy="78.9141" fill="#000000" rx="3" ry="3" style="stroke:#000000;stroke-width:1.0;"/><text fill="#000000" font-family="sans-serif" font-size="14" lengthAdjust="spacing" textLength="113" x="450" y="83.1426">name : VARCHAR</text><ellipse cx="441" cy="96.5234" fill="#000000" rx="3" ry="3" style="stroke:#000000;stroke-width:1.0;"/><text fill="#000000" font-family="sans-serif" font-size="14" lengthAdjust="spacing" textLength="159" x="450" y="100.752">created_at : TIMESTAMP</text><ellipse cx="441" cy="114.1328" fill="#000000" rx="3" ry="3" style="stroke:#000000;stroke-width:1.0;"/><text fill="#000000" font-family="sans-serif" font-size="14" lengthAdjust="spacing" textLength="163" x="450" y="118.3613">updated_at : TIMESTAMP</text><line style="stroke:#181818;stroke-width:1.0;stroke-dasharray:1.0,2.0;" x1="431" x2="618" y1="125.4375" y2="125.4375"/><ellipse cx="441" cy="139.7422" fill="#000000" rx="3" ry="3" style="stroke:#000000;stroke-width:1.0;"/><text fill="#000000" font-family="sans-serif" font-size="14" lengthAdjust="spacing" textLength="129" x="450" y="143.9707">owner_id : INTEGER</text><text fill="#000000" font-family="sans-serif" font-size="14" lengthAdjust="spacing" textLength="155" x="450" y="161.5801">locked_by_id : INTEGER</text></g><!--class TableNote--><g id="elem_TableNote"><rect codeLine="31" fill="#F1F1F1" height="126.4375" id="TableNote" rx="2.5" ry="2.5" style="stroke:#181818;stroke-width:0.5;" width="177" x="7" y="236"/><ellipse cx="58.75" cy="252" fill="#ADD1B2" rx="11" ry="11" style="stroke:#181818;stroke-width:1.0;"/><path d="M57.6094,252.7969 L57.6094,255.2969 L61.9375,255.2969 L61.9375,254.375 Q61.9375,253.7656 62.1719,253.5 Q62.4219,253.2344 62.7969,253.2344 Q63.1719,253.2344 63.4063,253.5 Q63.6406,253.7656 63.6406,254.375 L63.6406,257 L55.6406,257 Q55.0156,257 54.75,256.7656 Q54.5,256.5313 54.5,256.1406 Q54.5,255.7656 54.7656,255.5313 Q55.0313,255.2969 55.6406,255.2969 L55.9063,255.2969 L55.9063,248.6406 L55.6406,248.6406 Q55.0156,248.6406 54.75,248.4063 Q54.5,248.1719 54.5,247.7813 Q54.5,247.4063 54.75,247.1719 Q55.0156,246.9375 55.6406,246.9375 L63.2656,246.9375 L63.2656,249.5313 Q63.2656,250.1406 63.0313,250.4063 Q62.8125,250.6563 62.4219,250.6563 Q62.0469,250.6563 61.8125,250.4063 Q61.5781,250.1406 61.5781,249.5313 L61.5781,248.6406 L57.6094,248.6406 L57.6094,251.0938 L59.0938,251.0938 Q59.0938,250.4375 59.2188,250.25 Q59.4844,249.8438 59.9531,249.8438 Q60.3281,249.8438 60.5625,250.1094 Q60.7969,250.3594 60.7969,250.9688 L60.7969,252.9375 Q60.7969,253.4844 60.6719,253.6719 Q60.4063,254.0625 59.9531,254.0625 Q59.4844,254.0625 59.2188,253.6563 Q59.0938,253.4688 59.0938,252.7969 L57.6094,252.7969 Z " fill="#000000"/><text fill="#000000" font-family="sans-serif" font-size="14" lengthAdjust="spacing" textLength="65" x="79.25" y="257.7285">TableNote</text><line style="stroke:#181818;stroke-width:0.5;" x1="8" x2="183" y1="268" y2="268"/><ellipse cx="18" cy="282.3047" fill="#000000" rx="3" ry="3" style="stroke:#000000;stroke-width:1.0;"/><text fill="#000000" font-family="sans-serif" font-size="14" lengthAdjust="spacing" textLength="83" x="27" y="286.5332">id : INTEGER</text><line style="stroke:#181818;stroke-width:0.5;" x1="8" x2="183" y1="293.6094" y2="293.6094"/><ellipse cx="18" cy="307.9141" fill="#000000" rx="3" ry="3" style="stroke:#000000;stroke-width:1.0;"/><text fill="#000000" font-family="sans-serif" font-size="14" lengthAdjust="spacing" textLength="151" x="27" y="312.1426">column_names : JSONB</text><ellipse cx="18" cy="325.5234" fill="#000000" rx="3" ry="3" style="stroke:#000000;stroke-width:1.0;"/><text fill="#000000" font-family="sans-serif" font-size="14" lengthAdjust="spacing" textLength="84" x="27" y="329.752">cells : JSONB</text><line style="stroke:#181818;stroke-width:1.0;stroke-dasharray:1.0,2.0;" x1="8" x2="183" y1="336.8281" y2="336.8281"/><ellipse cx="18" cy="351.1328" fill="#000000" rx="3" ry="3" style="stroke:#000000;stroke-width:1.0;"/><text fill="#000000" font-family="sans-serif" font-size="14" lengthAdjust="spacing" textLength="119" x="27" y="355.3613">note_id : INTEGER</text></g><!--class TextNote--><g id="elem_TextNote"><rect codeLine="40" fill="#F1F1F1" height="108.8281" id="TextNote" rx="2.5" ry="2.5" style="stroke:#181818;stroke-width:0.5;" width="145" x="235" y="245"/><ellipse cx="275.65" cy="261" fill="#ADD1B2" rx="11" ry="11" style="stroke:#181818;stroke-width:1.0;"/><path d="M274.5094,261.7969 L274.5094,264.2969 L278.8375,264.2969 L278.8375,263.375 Q278.8375,262.7656 279.0719,262.5 Q279.3219,262.2344 279.6969,262.2344 Q280.0719,262.2344 280.3063,262.5 Q280.5406,262.7656 280.5406,263.375 L280.5406,266 L272.5406,266 Q271.9156,266 271.65,265.7656 Q271.4,265.5313 271.4,265.1406 Q271.4,264.7656 271.6656,264.5313 Q271.9313,264.2969 272.5406,264.2969 L272.8063,264.2969 L272.8063,257.6406 L272.5406,257.6406 Q271.9156,257.6406 271.65,257.4063 Q271.4,257.1719 271.4,256.7813 Q271.4,256.4063 271.65,256.1719 Q271.9156,255.9375 272.5406,255.9375 L280.1656,255.9375 L280.1656,258.5313 Q280.1656,259.1406 279.9313,259.4063 Q279.7125,259.6563 279.3219,259.6563 Q278.9469,259.6563 278.7125,259.4063 Q278.4781,259.1406 278.4781,258.5313 L278.4781,257.6406 L274.5094,257.6406 L274.5094,260.0938 L275.9938,260.0938 Q275.9938,259.4375 276.1188,259.25 Q276.3844,258.8438 276.8531,258.8438 Q277.2281,258.8438 277.4625,259.1094 Q277.6969,259.3594 277.6969,259.9688 L277.6969,261.9375 Q277.6969,262.4844 277.5719,262.6719 Q277.3063,263.0625 276.8531,263.0625 Q276.3844,263.0625 276.1188,262.6563 Q275.9938,262.4688 275.9938,261.7969 L274.5094,261.7969 Z " fill="#000000"/><text fill="#000000" font-family="sans-serif" font-size="14" lengthAdjust="spacing" textLength="56" x="295.35" y="266.7285">TextNote</text><line style="stroke:#181818;stroke-width:0.5;" x1="236" x2="379" y1="277" y2="277"/><ellipse cx="246" cy="291.3047" fill="#000000" rx="3" ry="3" style="stroke:#000000;stroke-width:1.0;"/><text fill="#000000" font-family="sans-serif" font-size="14" lengthAdjust="spacing" textLength="83" x="255" y="295.5332">id : INTEGER</text><line style="stroke:#181818;stroke-width:0.5;" x1="236" x2="379" y1="302.6094" y2="302.6094"/><ellipse cx="246" cy="316.9141" fill="#000000" rx="3" ry="3" style="stroke:#000000;stroke-width:1.0;"/><text fill="#000000" font-family="sans-serif" font-size="14" lengthAdjust="spacing" textLength="69" x="255" y="321.1426">text : TEXT</text><line style="stroke:#181818;stroke-width:1.0;stroke-dasharray:1.0,2.0;" x1="236" x2="379" y1="328.2188" y2="328.2188"/><ellipse cx="246" cy="342.5234" fill="#000000" rx="3" ry="3" style="stroke:#000000;stroke-width:1.0;"/><text fill="#000000" font-family="sans-serif" font-size="14" lengthAdjust="spacing" textLength="119" x="255" y="346.752">note_id : INTEGER</text></g><!--class CalendarNote--><g id="elem_CalendarNote"><rect codeLine="48" fill="#F1F1F1" height="108.8281" id="CalendarNote" rx="2.5" ry="2.5" style="stroke:#181818;stroke-width:0.5;" width="187" x="431" y="245"/><ellipse cx="476.75" cy="261" fill="#ADD1B2" rx="11" ry="11" style="stroke:#181818;stroke-width:1.0;"/><path d="M475.6094,261.7969 L475.6094,264.2969 L479.9375,264.2969 L479.9375,263.375 Q479.9375,262.7656 480.1719,262.5 Q480.4219,262.2344 480.7969,262.2344 Q481.1719,262.2344 481.4063,262.5 Q481.6406,262.7656 481.6406,263.375 L481.6406,266 L473.6406,266 Q473.0156,266 472.75,265.7656 Q472.5,265.5313 472.5,265.1406 Q472.5,264.7656 472.7656,264.5313 Q473.0313,264.2969 473.6406,264.2969 L473.9063,264.2969 L473.9063,257.6406 L473.6406,257.6406 Q473.0156,257.6406 472.75,257.4063 Q472.5,257.1719 472.5,256.7813 Q472.5,256.4063 472.75,256.1719 Q473.0156,255.9375 473.6406,255.9375 L481.2656,255.9375 L481.2656,258.5313 Q481.2656,259.1406 481.0313,259.4063 Q480.8125,259.6563 480.4219,259.6563 Q480.0469,259.6563 479.8125,259.4063 Q479.5781,259.1406 479.5781,258.5313 L479.5781,257.6406 L475.6094,257.6406 L475.6094,260.0938 L477.0938,260.0938 Q477.0938,259.4375 477.2188,259.25 Q477.4844,258.8438 477.9531,258.8438 Q478.3281,258.8438 478.5625,259.1094 Q478.7969,259.3594 478.7969,259.9688 L478.7969,261.9375 Q478.7969,262.4844 478.6719,262.6719 Q478.4063,263.0625 477.9531,263.0625 Q477.4844,263.0625 477.2188,262.6563 Q477.0938,262.4688 477.0938,261.7969 L475.6094,261.7969 Z " fill="#000000"/><text fill="#000000" font-family="sans-serif" font-size="14" lengthAdjust="spacing" textLength="87" x="497.25" y="266.7285">CalendarNote</text><line style="stroke:#181818;stroke-width:0.5;" x1="432" x2="617" y1="277" y2="277"/><ellipse cx="442" cy="291.3047" fill="#000000" rx="3" ry="3" style="stroke:#000000;stroke-width:1.0;"/><text fill="#000000" font-family="sans-serif" font-size="14" lengthAdjust="spacing" textLength="83" x="451" y="295.5332">id : INTEGER</text><line style="stroke:#181818;stroke-width:0.5;" x1="432" x2="617" y1="302.6094" y2="302.6094"/><ellipse cx="442" cy="316.9141" fill="#000000" rx="3" ry="3" style="stroke:#000000;stroke-width:1.0;"/><text fill="#000000" font-family="sans-serif" font-size="14" lengthAdjust="spacing" textLength="161" x="451" y="321.1426">calendar_events : JSONB</text><line style="stroke:#181818;stroke-width:1.0;stroke-dasharray:1.0,2.0;" x1="432" x2="617" y1="328.2188" y2="328.2188"/><ellipse cx="442" cy="342.5234" fill="#000000" rx="3" ry="3" style="stroke:#000000;stroke-width:1.0;"/><text fill="#000000" font-family="sans-serif" font-size="14" lengthAdjust="spacing" textLength="119" x="451" y="346.752">note_id : INTEGER</text></g><!--class Role--><g id="elem_Role"><rect codeLine="56" fill="#F1F1F1" height="83.2188" id="Role" rx="2.5" ry="2.5" style="stroke:#181818;stroke-width:0.5;" width="139" x="791" y="451.5"/><ellipse cx="841.75" cy="467.5" fill="#ADD1B2" rx="11" ry="11" style="stroke:#181818;stroke-width:1.0;"/><path d="M840.6094,468.2969 L840.6094,470.7969 L844.9375,470.7969 L844.9375,469.875 Q844.9375,469.2656 845.1719,469 Q845.4219,468.7344 845.7969,468.7344 Q846.1719,468.7344 846.4063,469 Q846.6406,469.2656 846.6406,469.875 L846.6406,472.5 L838.6406,472.5 Q838.0156,472.5 837.75,472.2656 Q837.5,472.0313 837.5,471.6406 Q837.5,471.2656 837.7656,471.0313 Q838.0313,470.7969 838.6406,470.7969 L838.9063,470.7969 L838.9063,464.1406 L838.6406,464.1406 Q838.0156,464.1406 837.75,463.9063 Q837.5,463.6719 837.5,463.2813 Q837.5,462.9063 837.75,462.6719 Q838.0156,462.4375 838.6406,462.4375 L846.2656,462.4375 L846.2656,465.0313 Q846.2656,465.6406 846.0313,465.9063 Q845.8125,466.1563 845.4219,466.1563 Q845.0469,466.1563 844.8125,465.9063 Q844.5781,465.6406 844.5781,465.0313 L844.5781,464.1406 L840.6094,464.1406 L840.6094,466.5938 L842.0938,466.5938 Q842.0938,465.9375 842.2188,465.75 Q842.4844,465.3438 842.9531,465.3438 Q843.3281,465.3438 843.5625,465.6094 Q843.7969,465.8594 843.7969,466.4688 L843.7969,468.4375 Q843.7969,468.9844 843.6719,469.1719 Q843.4063,469.5625 842.9531,469.5625 Q842.4844,469.5625 842.2188,469.1563 Q842.0938,468.9688 842.0938,468.2969 L840.6094,468.2969 Z " fill="#000000"/><text fill="#000000" font-family="sans-serif" font-size="14" lengthAdjust="spacing" textLength="29" x="862.25" y="473.2285">Role</text><line style="stroke:#181818;stroke-width:0.5;" x1="792" x2="929" y1="483.5" y2="483.5"/><ellipse cx="802" cy="497.8047" fill="#000000" rx="3" ry="3" style="stroke:#000000;stroke-width:1.0;"/><text fill="#000000" font-family="sans-serif" font-size="14" lengthAdjust="spacing" textLength="83" x="811" y="502.0332">id : INTEGER</text><line style="stroke:#181818;stroke-width:0.5;" x1="792" x2="929" y1="509.1094" y2="509.1094"/><ellipse cx="802" cy="523.4141" fill="#000000" rx="3" ry="3" style="stroke:#000000;stroke-width:1.0;"/><text fill="#000000" font-family="sans-serif" font-size="14" lengthAdjust="spacing" textLength="113" x="811" y="527.6426">name : VARCHAR</text></g><!--class UserNoteAccess--><g id="elem_UserNoteAccess"><rect codeLine="62" fill="#F1F1F1" height="126.4375" id="UserNoteAccess" rx="2.5" ry="2.5" style="stroke:#181818;stroke-width:0.5;" width="194" x="545.5" y="430"/><ellipse cx="587.05" cy="446" fill="#ADD1B2" rx="11" ry="11" style="stroke:#181818;stroke-width:1.0;"/><path d="M585.9094,446.7969 L585.9094,449.2969 L590.2375,449.2969 L590.2375,448.375 Q590.2375,447.7656 590.4719,447.5 Q590.7219,447.2344 591.0969,447.2344 Q591.4719,447.2344 591.7063,447.5 Q591.9406,447.7656 591.9406,448.375 L591.9406,451 L583.9406,451 Q583.3156,451 583.05,450.7656 Q582.8,450.5313 582.8,450.1406 Q582.8,449.7656 583.0656,449.5313 Q583.3313,449.2969 583.9406,449.2969 L584.2063,449.2969 L584.2063,442.6406 L583.9406,442.6406 Q583.3156,442.6406 583.05,442.4063 Q582.8,442.1719 582.8,441.7813 Q582.8,441.4063 583.05,441.1719 Q583.3156,440.9375 583.9406,440.9375 L591.5656,440.9375 L591.5656,443.5313 Q591.5656,444.1406 591.3313,444.4063 Q591.1125,444.6563 590.7219,444.6563 Q590.3469,444.6563 590.1125,444.4063 Q589.8781,444.1406 589.8781,443.5313 L589.8781,442.6406 L585.9094,442.6406 L585.9094,445.0938 L587.3938,445.0938 Q587.3938,444.4375 587.5188,444.25 Q587.7844,443.8438 588.2531,443.8438 Q588.6281,443.8438 588.8625,444.1094 Q589.0969,444.3594 589.0969,444.9688 L589.0969,446.9375 Q589.0969,447.4844 588.9719,447.6719 Q588.7063,448.0625 588.2531,448.0625 Q587.7844,448.0625 587.5188,447.6563 Q587.3938,447.4688 587.3938,446.7969 L585.9094,446.7969 Z " fill="#000000"/><text fill="#000000" font-family="sans-serif" font-size="14" lengthAdjust="spacing" textLength="103" x="606.95" y="451.7285">UserNoteAccess</text><line style="stroke:#181818;stroke-width:0.5;" x1="546.5" x2="738.5" y1="462" y2="462"/><ellipse cx="556.5" cy="476.3047" fill="#000000" rx="3" ry="3" style="stroke:#000000;stroke-width:1.0;"/><text fill="#000000" font-family="sans-serif" font-size="14" lengthAdjust="spacing" textLength="83" x="565.5" y="480.5332">id : INTEGER</text><line style="stroke:#181818;stroke-width:0.5;" x1="546.5" x2="738.5" y1="487.6094" y2="487.6094"/><ellipse cx="556.5" cy="501.9141" fill="#000000" rx="3" ry="3" style="stroke:#000000;stroke-width:1.0;"/><text fill="#000000" font-family="sans-serif" font-size="14" lengthAdjust="spacing" textLength="168" x="565.5" y="506.1426">access_type : AccessType</text><line style="stroke:#181818;stroke-width:1.0;stroke-dasharray:1.0,2.0;" x1="546.5" x2="738.5" y1="513.2188" y2="513.2188"/><ellipse cx="556.5" cy="527.5234" fill="#000000" rx="3" ry="3" style="stroke:#000000;stroke-width:1.0;"/><text fill="#000000" font-family="sans-serif" font-size="14" lengthAdjust="spacing" textLength="119" x="565.5" y="531.752">note_id : INTEGER</text><ellipse cx="556.5" cy="545.1328" fill="#000000" rx="3" ry="3" style="stroke:#000000;stroke-width:1.0;"/><text fill="#000000" font-family="sans-serif" font-size="14" lengthAdjust="spacing" textLength="119" x="565.5" y="549.3613">user_id : INTEGER</text></g><!--class UserNotepadAccess--><g id="elem_UserNotepadAccess"><rect codeLine="71" fill="#F1F1F1" height="126.4375" id="UserNotepadAccess" rx="2.5" ry="2.5" style="stroke:#181818;stroke-width:0.5;" width="194" x="981.5" y="430"/><ellipse cx="1012.25" cy="446" fill="#ADD1B2" rx="11" ry="11" style="stroke:#181818;stroke-width:1.0;"/><path d="M1011.1094,446.7969 L1011.1094,449.2969 L1015.4375,449.2969 L1015.4375,448.375 Q1015.4375,447.7656 1015.6719,447.5 Q1015.9219,447.2344 1016.2969,447.2344 Q1016.6719,447.2344 1016.9063,447.5 Q1017.1406,447.7656 1017.1406,448.375 L1017.1406,451 L1009.1406,451 Q1008.5156,451 1008.25,450.7656 Q1008,450.5313 1008,450.1406 Q1008,449.7656 1008.2656,449.5313 Q1008.5313,449.2969 1009.1406,449.2969 L1009.4063,449.2969 L1009.4063,442.6406 L1009.1406,442.6406 Q1008.5156,442.6406 1008.25,442.4063 Q1008,442.1719 1008,441.7813 Q1008,441.4063 1008.25,441.1719 Q1008.5156,440.9375 1009.1406,440.9375 L1016.7656,440.9375 L1016.7656,443.5313 Q1016.7656,444.1406 1016.5313,444.4063 Q1016.3125,444.6563 1015.9219,444.6563 Q1015.5469,444.6563 1015.3125,444.4063 Q1015.0781,444.1406 1015.0781,443.5313 L1015.0781,442.6406 L1011.1094,442.6406 L1011.1094,445.0938 L1012.5938,445.0938 Q1012.5938,444.4375 1012.7188,444.25 Q1012.9844,443.8438 1013.4531,443.8438 Q1013.8281,443.8438 1014.0625,444.1094 Q1014.2969,444.3594 1014.2969,444.9688 L1014.2969,446.9375 Q1014.2969,447.4844 1014.1719,447.6719 Q1013.9063,448.0625 1013.4531,448.0625 Q1012.9844,448.0625 1012.7188,447.6563 Q1012.5938,447.4688 1012.5938,446.7969 L1011.1094,446.7969 Z " fill="#000000"/><text fill="#000000" font-family="sans-serif" font-size="14" lengthAdjust="spacing" textLength="127" x="1029.75" y="451.7285">UserNotepadAccess</text><line style="stroke:#181818;stroke-width:0.5;" x1="982.5" x2="1174.5" y1="462" y2="462"/><ellipse cx="992.5" cy="476.3047" fill="#000000" rx="3" ry="3" style="stroke:#000000;stroke-width:1.0;"/><text fill="#000000" font-family="sans-serif" font-size="14" lengthAdjust="spacing" textLength="83" x="1001.5" y="480.5332">id : INTEGER</text><line style="stroke:#181818;stroke-width:0.5;" x1="982.5" x2="1174.5" y1="487.6094" y2="487.6094"/><ellipse cx="992.5" cy="501.9141" fill="#000000" rx="3" ry="3" style="stroke:#000000;stroke-width:1.0;"/><text fill="#000000" font-family="sans-serif" font-size="14" lengthAdjust="spacing" textLength="168" x="1001.5" y="506.1426">access_type : AccessType</text><line style="stroke:#181818;stroke-width:1.0;stroke-dasharray:1.0,2.0;" x1="982.5" x2="1174.5" y1="513.2188" y2="513.2188"/><ellipse cx="992.5" cy="527.5234" fill="#000000" rx="3" ry="3" style="stroke:#000000;stroke-width:1.0;"/><text fill="#000000" font-family="sans-serif" font-size="14" lengthAdjust="spacing" textLength="143" x="1001.5" y="531.752">notepad_id : INTEGER</text><ellipse cx="992.5" cy="545.1328" fill="#000000" rx="3" ry="3" style="stroke:#000000;stroke-width:1.0;"/><text fill="#000000" font-family="sans-serif" font-size="14" lengthAdjust="spacing" textLength="119" x="1001.5" y="549.3613">user_id : INTEGER</text></g><!--link Note to TextNote--><g id="link_Note_TextNote"><path codeLine="80" d="M421.5,51.5 C388.89,51.5 432.11,341 399.5,341 " fill="none" id="Note-TextNote" style="stroke:#181818;stroke-width:1.0;"/><line style="stroke:#181818;stroke-width:1.0;" x1="425.5" x2="425.5" y1="47.5" y2="55.5"/><line style="stroke:#181818;stroke-width:1.0;" x1="422.5" x2="422.5" y1="47.5" y2="55.5"/><line style="stroke:#181818;stroke-width:1.0;" x1="421.5" x2="429.5" y1="51.5" y2="51.5"/><line style="stroke:#181818;stroke-width:1.0;" x1="389.5" x2="381.5" y1="341" y2="347"/><line style="stroke:#181818;stroke-width:1.0;" x1="389.5" x2="381.5" y1="341" y2="335"/><line style="stroke:#181818;stroke-width:1.0;" x1="389.5" x2="381.5" y1="341" y2="341"/><ellipse cx="395.5" cy="341" fill="none" rx="4" ry="4" style="stroke:#181818;stroke-width:1.0;"/></g><!--link Note to TableNote--><g id="link_Note_TableNote"><path codeLine="81" d="M421.5,51.5 C295.02,51.5 274.85,123.72 209.5,232 C182.07,277.45 256.58,349 203.5,349 " fill="none" id="Note-TableNote" style="stroke:#181818;stroke-width:1.0;"/><line style="stroke:#181818;stroke-width:1.0;" x1="425.5" x2="425.5" y1="47.5" y2="55.5"/><line style="stroke:#181818;stroke-width:1.0;" x1="422.5" x2="422.5" y1="47.5" y2="55.5"/><line style="stroke:#181818;stroke-width:1.0;" x1="421.5" x2="429.5" y1="51.5" y2="51.5"/><line style="stroke:#181818;stroke-width:1.0;" x1="193.5" x2="185.5" y1="349" y2="355"/><line style="stroke:#181818;stroke-width:1.0;" x1="193.5" x2="185.5" y1="349" y2="343"/><line style="stroke:#181818;stroke-width:1.0;" x1="193.5" x2="185.5" y1="349" y2="349"/><ellipse cx="199.5" cy="349" fill="none" rx="4" ry="4" style="stroke:#181818;stroke-width:1.0;"/></g><!--link Note to CalendarNote--><g id="link_Note_CalendarNote"><path codeLine="82" d="M421.5,51.5 C389.33,51.5 380.33,341 412.5,341 " fill="none" id="Note-CalendarNote" style="stroke:#181818;stroke-width:1.0;"/><line style="stroke:#181818;stroke-width:1.0;" x1="425.5" x2="425.5" y1="47.5" y2="55.5"/><line style="stroke:#181818;stroke-width:1.0;" x1="422.5" x2="422.5" y1="47.5" y2="55.5"/><line style="stroke:#181818;stroke-width:1.0;" x1="421.5" x2="429.5" y1="51.5" y2="51.5"/><line style="stroke:#181818;stroke-width:1.0;" x1="422.5" x2="430.5" y1="341" y2="335"/><line style="stroke:#181818;stroke-width:1.0;" x1="422.5" x2="430.5" y1="341" y2="347"/><line style="stroke:#181818;stroke-width:1.0;" x1="422.5" x2="430.5" y1="341" y2="341"/><ellipse cx="416.5" cy="341" fill="none" rx="4" ry="4" style="stroke:#181818;stroke-width:1.0;"/></g><!--link User to Role--><g id="link_User_Role"><path codeLine="84" d="M768.5,284 C744.78,284 758.78,497 782.5,497 " fill="none" id="User-Role" style="stroke:#181818;stroke-width:1.0;"/><line style="stroke:#181818;stroke-width:1.0;" x1="768.5" x2="776.5" y1="284" y2="278"/><line style="stroke:#181818;stroke-width:1.0;" x1="768.5" x2="776.5" y1="284" y2="290"/><line style="stroke:#181818;stroke-width:1.0;" x1="768.5" x2="776.5" y1="284" y2="284"/><line style="stroke:#181818;stroke-width:1.0;" x1="766.5" x2="766.5" y1="280" y2="288"/><line style="stroke:#181818;stroke-width:1.0;" x1="782.5" x2="790.5" y1="497" y2="491"/><line style="stroke:#181818;stroke-width:1.0;" x1="782.5" x2="790.5" y1="497" y2="503"/><line style="stroke:#181818;stroke-width:1.0;" x1="782.5" x2="790.5" y1="497" y2="497"/><line style="stroke:#181818;stroke-width:1.0;" x1="780.5" x2="780.5" y1="493" y2="501"/></g><!--link User to UserNoteAccess--><g id="link_User_UserNoteAccess"><path codeLine="85" d="M768.5,284 C710.39,284 816.61,543 758.5,543 " fill="none" id="User-UserNoteAccess" style="stroke:#181818;stroke-width:1.0;"/><line style="stroke:#181818;stroke-width:1.0;" x1="772.5" x2="772.5" y1="280" y2="288"/><line style="stroke:#181818;stroke-width:1.0;" x1="769.5" x2="769.5" y1="280" y2="288"/><line style="stroke:#181818;stroke-width:1.0;" x1="768.5" x2="776.5" y1="284" y2="284"/><line style="stroke:#181818;stroke-width:1.0;" x1="748.5" x2="740.5" y1="543" y2="549"/><line style="stroke:#181818;stroke-width:1.0;" x1="748.5" x2="740.5" y1="543" y2="537"/><line style="stroke:#181818;stroke-width:1.0;" x1="748.5" x2="740.5" y1="543" y2="543"/><ellipse cx="754.5" cy="543" fill="none" rx="4" ry="4" style="stroke:#181818;stroke-width:1.0;"/></g><!--link User to UserNotepadAccess--><g id="link_User_UserNotepadAccess"><path codeLine="86" d="M953.5,284 C1011.58,284 904.42,543 962.5,543 " fill="none" id="User-UserNotepadAccess" style="stroke:#181818;stroke-width:1.0;"/><line style="stroke:#181818;stroke-width:1.0;" x1="949.5" x2="949.5" y1="288" y2="280"/><line style="stroke:#181818;stroke-width:1.0;" x1="952.5" x2="952.5" y1="288" y2="280"/><line style="stroke:#181818;stroke-width:1.0;" x1="953.5" x2="945.5" y1="284" y2="284"/><line style="stroke:#181818;stroke-width:1.0;" x1="972.5" x2="980.5" y1="543" y2="537"/><line style="stroke:#181818;stroke-width:1.0;" x1="972.5" x2="980.5" y1="543" y2="549"/><line style="stroke:#181818;stroke-width:1.0;" x1="972.5" x2="980.5" y1="543" y2="543"/><ellipse cx="966.5" cy="543" fill="none" rx="4" ry="4" style="stroke:#181818;stroke-width:1.0;"/></g><!--link Notepad to UserNotepadAccess--><g id="link_Notepad_UserNotepadAccess"><path codeLine="88" d="M1072.5,59.5 C1177.83,59.5 857.17,526 962.5,526 " fill="none" id="Notepad-UserNotepadAccess" style="stroke:#181818;stroke-width:1.0;"/><line style="stroke:#181818;stroke-width:1.0;" x1="1068.5" x2="1068.5" y1="63.5" y2="55.5"/><line style="stroke:#181818;stroke-width:1.0;" x1="1071.5" x2="1071.5" y1="63.5" y2="55.5"/><line style="stroke:#181818;stroke-width:1.0;" x1="1072.5" x2="1064.5" y1="59.5" y2="59.5"/><line style="stroke:#181818;stroke-width:1.0;" x1="972.5" x2="980.5" y1="526" y2="520"/><line style="stroke:#181818;stroke-width:1.0;" x1="972.5" x2="980.5" y1="526" y2="532"/><line style="stroke:#181818;stroke-width:1.0;" x1="972.5" x2="980.5" y1="526" y2="526"/><ellipse cx="966.5" cy="526" fill="none" rx="4" ry="4" style="stroke:#181818;stroke-width:1.0;"/></g><!--link Note to UserNoteAccess--><g id="link_Note_UserNoteAccess"><path codeLine="89" d="M628.5,51.5 C682.88,51.5 812.88,526 758.5,526 " fill="none" id="Note-UserNoteAccess" style="stroke:#181818;stroke-width:1.0;"/><line style="stroke:#181818;stroke-width:1.0;" x1="624.5" x2="624.5" y1="55.5" y2="47.5"/><line style="stroke:#181818;stroke-width:1.0;" x1="627.5" x2="627.5" y1="55.5" y2="47.5"/><line style="stroke:#181818;stroke-width:1.0;" x1="628.5" x2="620.5" y1="51.5" y2="51.5"/><line style="stroke:#181818;stroke-width:1.0;" x1="748.5" x2="740.5" y1="526" y2="532"/><line style="stroke:#181818;stroke-width:1.0;" x1="748.5" x2="740.5" y1="526" y2="520"/><line style="stroke:#181818;stroke-width:1.0;" x1="748.5" x2="740.5" y1="526" y2="526"/><ellipse cx="754.5" cy="526" fill="none" rx="4" ry="4" style="stroke:#181818;stroke-width:1.0;"/></g><!--link Note to User--><g id="link_Note_User"><path codeLine="91" d="M638.5,138.5 C733.31,138.5 673.69,284 768.5,284 " fill="none" id="Note-User" style="stroke:#181818;stroke-width:1.0;"/><line style="stroke:#181818;stroke-width:1.0;" x1="628.5" x2="620.5" y1="138.5" y2="144.5"/><line style="stroke:#181818;stroke-width:1.0;" x1="628.5" x2="620.5" y1="138.5" y2="132.5"/><line style="stroke:#181818;stroke-width:1.0;" x1="628.5" x2="620.5" y1="138.5" y2="138.5"/><ellipse cx="634.5" cy="138.5" fill="none" rx="4" ry="4" style="stroke:#181818;stroke-width:1.0;"/><line style="stroke:#181818;stroke-width:1.0;" x1="772.5" x2="772.5" y1="280" y2="288"/><line style="stroke:#181818;stroke-width:1.0;" x1="769.5" x2="769.5" y1="280" y2="288"/><line style="stroke:#181818;stroke-width:1.0;" x1="768.5" x2="776.5" y1="284" y2="284"/></g><!--link Notepad to User--><g id="link_Notepad_User"><path codeLine="92" d="M855.5,146.5 C873.49,187.52 927.29,194.65 944.5,236 C952.7,255.7 974.84,284 953.5,284 " fill="none" id="Notepad-User" style="stroke:#181818;stroke-width:1.0;"/><line style="stroke:#181818;stroke-width:1.0;" x1="865.5" x2="873.5" y1="146.5" y2="140.5"/><line style="stroke:#181818;stroke-width:1.0;" x1="865.5" x2="873.5" y1="146.5" y2="152.5"/><line style="stroke:#181818;stroke-width:1.0;" x1="865.5" x2="873.5" y1="146.5" y2="146.5"/><ellipse cx="859.5" cy="146.5" fill="none" rx="4" ry="4" style="stroke:#181818;stroke-width:1.0;"/><line style="stroke:#181818;stroke-width:1.0;" x1="949.5" x2="949.5" y1="288" y2="280"/><line style="stroke:#181818;stroke-width:1.0;" x1="952.5" x2="952.5" y1="288" y2="280"/><line style="stroke:#181818;stroke-width:1.0;" x1="953.5" x2="945.5" y1="284" y2="284"/></g><!--SRC=[pPH1ReCm44NtdCBhIia1lACHQbCfQKLerPtbm2oYEXY1qnG1T- -O61oQMh4YLIexvZ_F_6zi85SxLPFN2ahI10IVExBB22NBTH8zH75VOime1yHolWVKty9uyHZ6He0ztucBQi6hwYZBx4peWW1E8zTIGS4pZwc_JanBu0eonXLAoN8LRP9mzJBuB3ANE9yRHXvpADbawjJSVtAc1I7J3rovhLsc4xuLuEaybUAmpvaEK27pj7bUtmyI236jZSvoREwS3b_ASxX2LCUFtXF__Wik8CzuwHlGu0m-iS4DUM8fRZW2Ths-KjfhcAPGLHwTU0yoLHUwuMbPWY_NBDkhwOeoMC7hzWTkiAkt8Us2KgosxMmcc_7GK6foNHB3eNOZvoV3Ke5EtMCTOctJVr3zRWMpVlgbA3NEdTouZHODJFqARhVh8iHF4sEC4pZ-4pg9OLeoUBE3dSGt]--></g></svg>